<svg viewBox="0 0 86 20" xmlns="http://www.w3.org/2000/svg" xmlns:xlink="http://www.w3.org/1999/xlink" width="86.000000" height="20.000000" fill="none" customFrame="#000000">
	<defs>
		<clipPath id="clipPath_31">
			<rect width="20.000000" height="20.000000" x="66.000000" y="0.000000" fill="rgb(255,255,255)" />
		</clipPath>
	</defs>
	<g id="Order Now">
		<path id="ORDER NOW" d="M7.76953 9.63672L7.76953 10.041C7.76953 10.6895 7.68164 11.2715 7.50586 11.7871C7.33008 12.3027 7.08203 12.7422 6.76172 13.1055C6.44141 13.4648 6.05859 13.7402 5.61328 13.9316C5.17188 14.123 4.68164 14.2188 4.14258 14.2188C3.60742 14.2188 3.11719 14.123 2.67188 13.9316C2.23047 13.7402 1.84766 13.4648 1.52344 13.1055C1.19922 12.7422 0.947266 12.3027 0.767578 11.7871C0.591797 11.2715 0.503906 10.6895 0.503906 10.041L0.503906 9.63672C0.503906 8.98438 0.591797 8.40234 0.767578 7.89062C0.943359 7.375 1.19141 6.93555 1.51172 6.57227C1.83594 6.20898 2.21875 5.93164 2.66016 5.74023C3.10547 5.54883 3.5957 5.45312 4.13086 5.45312C4.66992 5.45312 5.16016 5.54883 5.60156 5.74023C6.04688 5.93164 6.42969 6.20898 6.75 6.57227C7.07422 6.93555 7.32422 7.375 7.5 7.89062C7.67969 8.40234 7.76953 8.98438 7.76953 9.63672ZM5.99414 10.041L5.99414 9.625C5.99414 9.17188 5.95312 8.77344 5.87109 8.42969C5.78906 8.08594 5.66797 7.79688 5.50781 7.5625C5.34766 7.32812 5.15234 7.15234 4.92188 7.03516C4.69141 6.91406 4.42773 6.85352 4.13086 6.85352C3.83398 6.85352 3.57031 6.91406 3.33984 7.03516C3.11328 7.15234 2.91992 7.32812 2.75977 7.5625C2.60352 7.79688 2.48438 8.08594 2.40234 8.42969C2.32031 8.77344 2.2793 9.17188 2.2793 9.625L2.2793 10.041C2.2793 10.4902 2.32031 10.8887 2.40234 11.2363C2.48438 11.5801 2.60547 11.8711 2.76562 12.1094C2.92578 12.3438 3.12109 12.5215 3.35156 12.6426C3.58203 12.7637 3.8457 12.8242 4.14258 12.8242C4.43945 12.8242 4.70312 12.7637 4.93359 12.6426C5.16406 12.5215 5.35742 12.3438 5.51367 12.1094C5.66992 11.8711 5.78906 11.5801 5.87109 11.2363C5.95312 10.8887 5.99414 10.4902 5.99414 10.041ZM9.03516 5.57031L12.2168 5.57031C12.8691 5.57031 13.4297 5.66797 13.8984 5.86328C14.3711 6.05859 14.7344 6.34766 14.9883 6.73047C15.2422 7.11328 15.3691 7.58398 15.3691 8.14258C15.3691 8.59961 15.291 8.99219 15.1348 9.32031C14.9824 9.64453 14.7656 9.91602 14.4844 10.1348C14.207 10.3496 13.8809 10.5215 13.5059 10.6504L12.9492 10.9434L10.1836 10.9434L10.1719 9.57227L12.2285 9.57227C12.5371 9.57227 12.793 9.51758 12.9961 9.4082C13.1992 9.29883 13.3516 9.14648 13.4531 8.95117C13.5586 8.75586 13.6113 8.5293 13.6113 8.27148C13.6113 7.99805 13.5605 7.76172 13.459 7.5625C13.3574 7.36328 13.2031 7.21094 12.9961 7.10547C12.7891 7 12.5293 6.94727 12.2168 6.94727L10.793 6.94727L10.793 14.1016L9.03516 14.1016L9.03516 5.57031ZM13.8047 14.1016L11.8594 10.2988L13.7168 10.2871L15.6855 14.0195L15.6855 14.1016L13.8047 14.1016ZM19.3418 14.1016L17.4844 14.1016L17.4961 12.7305L19.3418 12.7305C19.8027 12.7305 20.1914 12.627 20.5078 12.4199C20.8242 12.209 21.0625 11.9023 21.2227 11.5C21.3867 11.0977 21.4688 10.6113 21.4688 10.041L21.4688 9.625C21.4688 9.1875 21.4219 8.80273 21.3281 8.4707C21.2383 8.13867 21.1035 7.85938 20.9238 7.63281C20.7441 7.40625 20.5234 7.23633 20.2617 7.12305C20 7.00586 19.6992 6.94727 19.3594 6.94727L17.4492 6.94727L17.4492 5.57031L19.3594 5.57031C19.9297 5.57031 20.4512 5.66797 20.9238 5.86328C21.4004 6.05469 21.8125 6.33008 22.1602 6.68945C22.5078 7.04883 22.7754 7.47852 22.9629 7.97852C23.1543 8.47461 23.25 9.02734 23.25 9.63672L23.25 10.041C23.25 10.6465 23.1543 11.1992 22.9629 11.6992C22.7754 12.1992 22.5078 12.6289 22.1602 12.9883C21.8164 13.3438 21.4043 13.6191 20.9238 13.8145C20.4473 14.0059 19.9199 14.1016 19.3418 14.1016ZM18.4805 5.57031L18.4805 14.1016L16.7227 14.1016L16.7227 5.57031L18.4805 5.57031ZM30.252 12.7305L30.252 14.1016L25.7109 14.1016L25.7109 12.7305L30.252 12.7305ZM26.2852 5.57031L26.2852 14.1016L24.5273 14.1016L24.5273 5.57031L26.2852 5.57031ZM29.6602 9.04492L29.6602 10.3809L25.7109 10.3809L25.7109 9.04492L29.6602 9.04492ZM30.2461 5.57031L30.2461 6.94727L25.7109 6.94727L25.7109 5.57031L30.2461 5.57031ZM31.2773 5.57031L34.459 5.57031C35.1113 5.57031 35.6719 5.66797 36.1406 5.86328C36.6133 6.05859 36.9766 6.34766 37.2305 6.73047C37.4844 7.11328 37.6113 7.58398 37.6113 8.14258C37.6113 8.59961 37.5332 8.99219 37.377 9.32031C37.2246 9.64453 37.0078 9.91602 36.7266 10.1348C36.4492 10.3496 36.123 10.5215 35.748 10.6504L35.1914 10.9434L32.4258 10.9434L32.4141 9.57227L34.4707 9.57227C34.7793 9.57227 35.0352 9.51758 35.2383 9.4082C35.4414 9.29883 35.5938 9.14648 35.6953 8.95117C35.8008 8.75586 35.8535 8.5293 35.8535 8.27148C35.8535 7.99805 35.8027 7.76172 35.7012 7.5625C35.5996 7.36328 35.4453 7.21094 35.2383 7.10547C35.0312 7 34.7715 6.94727 34.459 6.94727L33.0352 6.94727L33.0352 14.1016L31.2773 14.1016L31.2773 5.57031ZM36.0469 14.1016L34.1016 10.2988L35.959 10.2871L37.9277 14.0195L37.9277 14.1016L36.0469 14.1016ZM48.8965 5.57031L48.8965 14.1016L47.1387 14.1016L43.7109 8.38281L43.7109 14.1016L41.9531 14.1016L41.9531 5.57031L43.7109 5.57031L47.1445 11.2949L47.1445 5.57031L48.8965 5.57031ZM57.4336 9.63672L57.4336 10.041C57.4336 10.6895 57.3457 11.2715 57.1699 11.7871C56.9941 12.3027 56.7461 12.7422 56.4258 13.1055C56.1055 13.4648 55.7227 13.7402 55.2773 13.9316C54.8359 14.123 54.3457 14.2188 53.8066 14.2188C53.2715 14.2188 52.7812 14.123 52.3359 13.9316C51.8945 13.7402 51.5117 13.4648 51.1875 13.1055C50.8633 12.7422 50.6113 12.3027 50.4316 11.7871C50.2559 11.2715 50.168 10.6895 50.168 10.041L50.168 9.63672C50.168 8.98438 50.2559 8.40234 50.4316 7.89062C50.6074 7.375 50.8555 6.93555 51.1758 6.57227C51.5 6.20898 51.8828 5.93164 52.3242 5.74023C52.7695 5.54883 53.2598 5.45312 53.7949 5.45312C54.334 5.45312 54.8242 5.54883 55.2656 5.74023C55.7109 5.93164 56.0938 6.20898 56.4141 6.57227C56.7383 6.93555 56.9883 7.375 57.1641 7.89062C57.3438 8.40234 57.4336 8.98438 57.4336 9.63672ZM55.6582 10.041L55.6582 9.625C55.6582 9.17188 55.6172 8.77344 55.5352 8.42969C55.4531 8.08594 55.332 7.79688 55.1719 7.5625C55.0117 7.32812 54.8164 7.15234 54.5859 7.03516C54.3555 6.91406 54.0918 6.85352 53.7949 6.85352C53.498 6.85352 53.2344 6.91406 53.0039 7.03516C52.7773 7.15234 52.584 7.32812 52.4238 7.5625C52.2676 7.79688 52.1484 8.08594 52.0664 8.42969C51.9844 8.77344 51.9434 9.17188 51.9434 9.625L51.9434 10.041C51.9434 10.4902 51.9844 10.8887 52.0664 11.2363C52.1484 11.5801 52.2695 11.8711 52.4297 12.1094C52.5898 12.3438 52.7852 12.5215 53.0156 12.6426C53.2461 12.7637 53.5098 12.8242 53.8066 12.8242C54.1035 12.8242 54.3672 12.7637 54.5977 12.6426C54.8281 12.5215 55.0215 12.3438 55.1777 12.1094C55.334 11.8711 55.4531 11.5801 55.5352 11.2363C55.6172 10.8887 55.6582 10.4902 55.6582 10.041ZM60.7559 12.748L62.4551 5.57031L63.4043 5.57031L63.6211 6.76562L61.8105 14.1016L60.791 14.1016L60.7559 12.748ZM59.8828 5.57031L61.2891 12.748L61.1719 14.1016L60.0352 14.1016L58.1426 5.57031L59.8828 5.57031ZM65.1152 12.7188L66.5039 5.57031L68.2441 5.57031L66.3574 14.1016L65.2207 14.1016L65.1152 12.7188ZM63.9375 5.57031L65.6484 12.7773L65.6016 14.1016L64.582 14.1016L62.7598 6.75977L62.9941 5.57031L63.9375 5.57031Z" fill="rgb(255,180,0)" fill-rule="nonzero" />
		<g id="Frame" clip-path="url(#clipPath_31)" customFrame="url(#clipPath_31)">
			<rect id="Frame" width="20.000000" height="20.000000" x="66.000000" y="0.000000" fill="rgb(255,255,255)" fill-opacity="0" />
			<path id="Vector" d="M66 0L86 0L86 20L66 20L66 0Z" fill-rule="nonzero" />
			<path id="Vector" d="M76.1436 9.9997L73.7861 7.64303L74.9645 6.46387L78.5003 9.9997L74.9645 13.5355L73.7861 12.3564L76.1436 9.9997Z" fill="rgb(255,180,0)" fill-rule="nonzero" />
		</g>
	</g>
</svg>
