<svg viewBox="0 0 68 68" xmlns="http://www.w3.org/2000/svg" xmlns:xlink="http://www.w3.org/1999/xlink" width="68.000000" height="68.000000" fill="none" customFrame="#000000">
	<defs>
		<clipPath id="clipPath_15">
			<rect width="68.000000" height="68.000000" x="0.000000" y="0.000000" fill="rgb(255,255,255)" />
		</clipPath>
		<clipPath id="clipPath_16">
			<rect width="76.000000" height="76.000000" x="0.000000" y="-8.000000" fill="rgb(255,255,255)" />
		</clipPath>
		<clipPath id="clipPath_17">
			<rect width="76.000000" height="76.000000" x="0.000000" y="-8.000000" fill="rgb(255,255,255)" />
		</clipPath>
		<clipPath id="clipPath_18">
			<rect width="76.000000" height="76.000000" x="0.000000" y="-8.000000" fill="rgb(255,255,255)" />
		</clipPath>
	</defs>
	<rect id="Icons/illustration" width="68.000000" height="68.000000" x="0.000000" y="0.000000" fill="rgb(255,255,255)" fill-opacity="0" />
	<g id="Icons/illustration" customFrame="url(#clipPath_15)">
		<rect id="Icons/illustration" width="68.000000" height="68.000000" x="0.000000" y="0.000000" fill="rgb(255,255,255)" fill-opacity="0" />
		<g id="Icons/illustration" customFrame="url(#clipPath_16)">
			<rect id="Icons/illustration" width="76.000000" height="76.000000" x="0.000000" y="-8.000000" fill="rgb(255,255,255)" fill-opacity="0" />
			<g id="Icons/illustration" customFrame="url(#clipPath_17)">
				<rect id="Icons/illustration" width="76.000000" height="76.000000" x="0.000000" y="-8.000000" fill="rgb(255,255,255)" fill-opacity="0" />
				<g id="Icons/illustration" clip-path="url(#clipPath_18)" customFrame="url(#clipPath_18)">
					<rect id="Icons/illustration" width="76.000000" height="76.000000" x="0.000000" y="-8.000000" fill="rgb(255,255,255)" fill-opacity="0" />
					<g id="Group">
						<g id="Group">
							<path id="Vector" d="M35.3281 47.1431C34.7132 47.1431 34.2148 47.6415 34.2148 48.2563C34.2148 48.8712 34.7132 49.3696 35.3281 49.3696L40.6719 49.3696C41.2868 49.3696 41.7852 48.8712 41.7852 48.2563C41.7852 47.6415 41.2868 47.1431 40.6719 47.1431L35.3281 47.1431Z" fill="rgb(255,180,0)" fill-rule="nonzero" />
							<path id="Vector" d="M13.3594 29.8564L20.7183 29.8564C21.1678 31.0263 22.3002 31.8604 23.6264 31.8604C24.9525 31.8604 26.0849 31.0263 26.5344 29.8564L28.0053 29.8564C28.6202 29.8564 29.1185 29.358 29.1185 28.7432C29.1185 28.1283 28.6202 27.6299 28.0053 27.6299L26.5344 27.6299C26.0849 26.46 24.9525 25.626 23.6264 25.626C22.3002 25.626 21.1678 26.46 20.7183 27.6299L13.3594 27.6299C12.7444 27.6299 12.2461 28.1283 12.2461 28.7432C12.2461 29.358 12.7444 29.8564 13.3594 29.8564ZM23.6264 27.8525C24.1175 27.8525 24.517 28.252 24.517 28.7432C24.517 29.2343 24.1175 29.6338 23.6264 29.6338C23.1352 29.6338 22.7357 29.2343 22.7357 28.7432C22.7357 28.252 23.1352 27.8525 23.6264 27.8525Z" fill="rgb(255,180,0)" fill-rule="nonzero" />
							<path id="Vector" d="M13.3594 23.4736L14.7808 23.4736C15.2303 24.6435 16.3627 25.4775 17.6889 25.4775C19.015 25.4775 20.1474 24.6435 20.5969 23.4736L28.0053 23.4736C28.6202 23.4736 29.1185 22.9752 29.1185 22.3604C29.1185 21.7455 28.6202 21.2471 28.0053 21.2471L20.5969 21.2471C20.1474 20.0772 19.015 19.2432 17.6889 19.2432C16.3627 19.2432 15.2303 20.0772 14.7808 21.2471L13.3594 21.2471C12.7444 21.2471 12.2461 21.7455 12.2461 22.3604C12.2461 22.9752 12.7444 23.4736 13.3594 23.4736ZM17.6889 21.4697C18.18 21.4697 18.5795 21.8692 18.5795 22.3604C18.5795 22.8515 18.18 23.251 17.6889 23.251C17.1977 23.251 16.7982 22.8515 16.7982 22.3604C16.7982 21.8692 17.1977 21.4697 17.6889 21.4697Z" fill="rgb(255,180,0)" fill-rule="nonzero" />
							<path id="Vector" d="M28.228 13.2314C28.8429 13.2314 29.3413 12.733 29.3413 12.1182C29.3413 11.5033 28.8429 11.0049 28.228 11.0049C27.6132 11.0049 27.1147 11.5033 27.1147 12.1182C27.1147 12.733 27.6132 13.2314 28.228 13.2314Z" fill="rgb(255,180,0)" fill-rule="evenodd" />
							<path id="Vector" d="M25.1602 13.2314C25.775 13.2314 26.2734 12.733 26.2734 12.1182C26.2734 11.5033 25.775 11.0049 25.1602 11.0049C24.5453 11.0049 24.0469 11.5033 24.0469 12.1182C24.0469 12.733 24.5453 13.2314 25.1602 13.2314Z" fill="rgb(255,180,0)" fill-rule="evenodd" />
							<path id="Vector" d="M22.0923 13.2314C22.7071 13.2314 23.2056 12.733 23.2056 12.1182C23.2056 11.5033 22.7071 11.0049 22.0923 11.0049C21.4774 11.0049 20.979 11.5033 20.979 12.1182C20.979 12.733 21.4774 13.2314 22.0923 13.2314Z" fill="rgb(255,180,0)" fill-rule="evenodd" />
							<path id="Vector" d="M72.6602 -0.50646L72.2432 -0.50646L72.5542 -0.817437C73.4856 -1.74888 73.4856 -3.26458 72.5542 -4.19602L70.1171 -6.63307C69.1857 -7.56437 67.6701 -7.56437 66.7385 -6.63307L60.6124 -0.506609L3.33984 -0.506609C1.49833 -0.506609 0 0.99157 0 2.83323L0 49.0662C0 51.3171 1.83113 53.1482 4.08203 53.1482L30.4512 53.1482L30.4512 61.0236L25.0859 61.0236C23.6537 61.0236 22.4883 62.1889 22.4883 63.6212L22.4883 64.7336C22.4883 66.1659 23.6537 67.3313 25.0859 67.3313L50.9141 67.3313C52.3463 67.3313 53.5117 66.1659 53.5117 64.7336L53.5117 63.6212C53.5117 62.1889 52.3463 61.0236 50.9141 61.0236L45.5488 61.0236L45.5488 53.1482L57.4453 53.1482C58.0603 53.1482 58.5586 52.6498 58.5586 52.0349C58.5586 51.4201 58.0603 50.9216 57.4453 50.9216L4.08203 50.9216C3.05885 50.9216 2.22656 50.0894 2.22656 49.0662L2.22656 45.7709L73.7734 45.7709L73.7734 49.0662C73.7734 50.0894 72.9411 50.9216 71.918 50.9216L62.6406 50.9216C62.0257 50.9216 61.5273 51.4201 61.5273 52.0349C61.5273 52.6498 62.0257 53.1482 62.6406 53.1482L71.918 53.1482C74.1689 53.1482 76 51.3171 76 49.0662L76 2.83338C76 0.991867 74.5017 -0.50646 72.6602 -0.50646ZM50.9141 63.2503C51.1188 63.2503 51.2852 63.4168 51.2852 63.6214L51.2852 64.7337C51.2852 64.9383 51.1188 65.1048 50.9141 65.1048L25.0859 65.1048C24.8812 65.1048 24.7148 64.9383 24.7148 64.7337L24.7148 63.6214C24.7148 63.4168 24.8812 63.2503 25.0859 63.2503L50.9141 63.2503ZM32.6778 53.1485L43.3224 53.1485L43.3224 61.0238L32.6778 61.0238L32.6778 53.1485ZM68.313 -5.05845C68.3765 -5.12183 68.4796 -5.12168 68.5428 -5.05845L70.9797 -2.62155C71.0431 -2.55816 71.0431 -2.455 70.9797 -2.39177L68.6544 -0.0664921L65.9877 -2.73317L68.313 -5.05845ZM64.4133 -1.15869L67.0798 1.50799L66.3033 2.28446L63.6368 -0.382218L64.4133 -1.15869ZM62.0623 1.19226L64.729 3.85894L51.555 17.0329L48.8883 14.3662L62.0623 1.19226ZM60.4141 11.3705C61.9283 11.3705 63.1602 12.6024 63.1602 14.1166C63.1602 15.6308 61.9283 16.8627 60.4141 16.8627C58.8999 16.8627 57.668 15.6308 57.668 14.1166C57.668 14.0989 57.6703 14.0818 57.6706 14.0642L60.3621 11.3731C60.3795 11.3728 60.3965 11.3705 60.4141 11.3705ZM49.6218 18.2486L46.3269 19.5944L47.6726 16.2995L49.6218 18.2486ZM73.7734 43.5446L2.22656 43.5446L2.22656 2.83338C2.22656 2.21959 2.72591 1.7201 3.33984 1.7201L58.386 1.7201L56.6884 3.41763L18.8516 3.41763C18.2366 3.41763 17.7383 3.91609 17.7383 4.53091C17.7383 5.14574 18.2366 5.64419 18.8516 5.64419L54.462 5.64419L46.6095 13.4971C46.3876 13.721 46.2141 13.9822 46.0946 14.2747L43.6078 20.363C43.3797 20.9221 43.5082 21.5594 43.9353 21.9863C44.2219 22.2729 44.6031 22.4249 44.9919 22.4249C45.1824 22.4249 45.3747 22.3884 45.5586 22.3134L51.6468 19.8268C51.9309 19.7107 52.185 19.5427 52.4047 19.3297L55.7914 15.9434C56.521 17.7839 58.3171 19.0894 60.4142 19.0894C63.1562 19.0894 65.3869 16.8586 65.3869 14.1167C65.3869 12.0199 64.0817 10.2239 62.2415 9.49422L66.0918 5.64434L69.8493 5.64434L69.8493 39.6206L69.2593 39.6206L65.2248 32.6327C64.9175 32.1001 64.2362 31.9176 63.704 32.2252C63.1716 32.5326 62.9892 33.2135 63.2966 33.7459L66.6884 39.6206L51.1366 39.6206L49.4686 36.7316L57.2445 23.2634L60.6988 29.2467C61.0063 29.7791 61.6872 29.9617 62.2195 29.6541C62.7519 29.3467 62.9344 28.6658 62.627 28.1334L58.9417 21.7504C58.5874 21.1368 57.953 20.7704 57.2443 20.7704C56.5357 20.7704 55.9011 21.1368 55.5468 21.7504L48.1828 34.5052L38.7342 18.1398C38.3799 17.5262 37.7454 17.1598 37.0366 17.1598C36.3281 17.1598 35.6936 17.5262 35.3393 18.1398L32.829 22.4877L32.829 10.5544C32.829 9.12209 31.6636 7.9567 30.2314 7.9567L11.1328 7.9567C9.70054 7.9567 8.53516 9.12209 8.53516 10.5544L8.53516 34.8981C8.53516 35.9213 9.36744 36.7536 10.3906 36.7536L24.593 36.7536L22.9376 39.6208L6.1508 39.6208L6.1508 5.64419L13.6562 5.64419C14.2712 5.64419 14.7695 5.14574 14.7695 4.53091C14.7695 3.91609 14.2712 3.41763 13.6562 3.41763L5.77971 3.41763C4.75653 3.41763 3.92424 4.24992 3.92424 5.2731L3.92424 39.9916C3.92424 41.0148 4.75653 41.8471 5.77971 41.8471L70.2204 41.8471C71.2436 41.8471 72.0759 41.0148 72.0759 39.9916L72.0759 5.2731C72.0759 4.24992 71.2436 3.41763 70.2204 3.41763L68.3187 3.41763L70.0165 1.7201L72.6602 1.7201C73.2741 1.7201 73.7734 2.21959 73.7734 2.83338L73.7734 43.5446ZM30.6029 16.7199L30.6029 34.5267L10.7617 34.5267L10.7617 16.7199L30.6029 16.7199ZM10.7617 14.4933L10.7617 10.5541C10.7617 10.3495 10.9281 10.183 11.1328 10.183L30.2318 10.183C30.4365 10.183 30.6029 10.3495 30.6029 10.5541L30.6029 14.4933L10.7617 14.4933ZM27.1641 36.7533L30.974 36.7533C31.9972 36.7533 32.8295 35.921 32.8295 34.8978L32.8295 32.5396C33.1079 32.6732 33.418 32.7455 33.7428 32.7455C34.5028 32.7455 35.1832 32.3524 35.5631 31.6944L37.4578 28.4129C37.5151 28.3137 37.6026 28.2928 37.6657 28.2928C37.7291 28.2928 37.8167 28.3137 37.8738 28.4129L39.0419 30.4359C39.4219 31.0943 40.1025 31.4872 40.8626 31.4872C41.6226 31.4872 42.3032 31.0942 42.6831 30.4361L42.9731 29.9338L48.5656 39.6203L25.5087 39.6203L27.1641 36.7533ZM32.8295 28.8129L32.8295 26.9405L37.0372 19.6527L41.6875 27.7072L40.8625 29.1361L39.802 27.2994C39.3561 26.5271 38.5575 26.0661 37.6656 26.0661C36.7738 26.0661 35.9752 26.5271 35.5293 27.2994L33.7424 30.3944L32.8295 28.8129Z" fill="rgb(255,180,0)" fill-rule="nonzero" />
						</g>
					</g>
				</g>
			</g>
		</g>
	</g>
</svg>
